<svg xmlns="http://www.w3.org/2000/svg" height="30" width="30" id="glider_svg"><title>glider2</title><g class="nc-icon-wrapper"><path fill="#fff" fill-opacity="1" stroke-width="1" stroke="#999" stroke-opacity="1" d="M0.54 0.54h29.26v29.26h-29.26z"/><path fill-opacity="0" stroke-width="1" stroke="#999" stroke-opacity="1" d="M10.29 0.54h9.76v29.26h-9.76z"/><path fill-opacity="0" stroke-width="1" stroke="#999" stroke-opacity="1" d="M0.54 10.29h29.26v9.76h-29.26z"/><path fill="#000" fill-opacity="1" stroke-width="0" d="M15.17 1.63a3.79 3.79 0 1 0 0 7.58 3.79 3.79 0 1 0 0-7.58z"/><path fill="#000" fill-opacity="1" stroke-width="0" d="M24.92 11.38a3.79 3.79 0 1 0 0 7.58 3.79 3.79 0 1 0 0-7.58z"/><path fill="#000" fill-opacity="1" stroke-width="0" d="M24.92 21.13a3.79 3.79 0 1 0 0 7.59 3.79 3.79 0 1 0 0-7.59z"/><path fill="#000" fill-opacity="1" stroke-width="0" d="M15.17 21.13a3.79 3.79 0 1 0 0 7.59 3.79 3.79 0 1 0 0-7.59z"/><path fill="#000" fill-opacity="1" stroke-width="0" d="M5.42 21.13a3.79 3.79 0 1 0 0 7.59 3.79 3.79 0 1 0 0-7.59z"/></g></svg>